PathFileType  4	(X/Y/Z) C:\Users\antoi\Documents\MyRepositories\mobilecap\ResultsAnalysis
DataRate	CameraRate	NumFrames	NumMarkers	Units	OrigDataRate	OrigDataStartFrame	OrigNumFrames
100.0	100.0	4	51	mm	100.0	268	306
Frame#	Time	r_knee			r_shank_antsup			r_ankle			r_calc			r_5meta			r_toe			L_knee			L_shank_antsup			L_ankle			L_calc			L_5meta			L_toe			r_sh2			r_sh3			r_sh4			L_sh2			L_sh3			r_thigh1			r_thigh2			r_thigh3			r_thigh4			r_thigh5			L_thigh1			L_thigh2			L_thigh3			L_thigh4			r.ASIS			r.PSIS			L.ASIS			L.PSIS			C7			R_Shoulder			L_Shoulder			R_Sternum			L_Sternum			R_humerus			R_elbow_med			R_elbow_lat			R_forearm			R_wrist_radius			R_wrist_ulna			L_humerus			L_elbow_med			L_elbow_lat			L_forearm			L_wrist_radius			L_wrist_ulna			R_HJC			L_HJC			R_HJC_reg			L_HJC_reg			
		X1	Y1	Z1	X2	Y2	Z2	X3	Y3	Z3	X4	Y4	Z4	X5	Y5	Z5	X6	Y6	Z6	X7	Y7	Z7	X8	Y8	Z8	X9	Y9	Z9	X10	Y10	Z10	X11	Y11	Z11	X12	Y12	Z12	X13	Y13	Z13	X14	Y14	Z14	X15	Y15	Z15	X16	Y16	Z16	X17	Y17	Z17	X18	Y18	Z18	X19	Y19	Z19	X20	Y20	Z20	X21	Y21	Z21	X22	Y22	Z22	X23	Y23	Z23	X24	Y24	Z24	X25	Y25	Z25	X26	Y26	Z26	X27	Y27	Z27	X28	Y28	Z28	X29	Y29	Z29	X30	Y30	Z30	X31	Y31	Z31	X32	Y32	Z32	X33	Y33	Z33	X34	Y34	Z34	X35	Y35	Z35	X36	Y36	Z36	X37	Y37	Z37	X38	Y38	Z38	X39	Y39	Z39	X40	Y40	Z40	X41	Y41	Z41	X42	Y42	Z42	X43	Y43	Z43	X44	Y44	Z44	X45	Y45	Z45	X46	Y46	Z46	X47	Y47	Z47	X48	Y48	Z48	X49	Y49	Z49	X50	Y50	Z50	X51	Y51	Z51	

268	2.67000000	-109.56599	642.94479	-248.17922	-69.32703	532.35549	-243.20511	-129.82134	258.26505	-260.36891	-165.17435	256.64151	-324.22910	-75.41133	142.39987	-216.18219	-24.33487	134.82805	-244.88654	-75.36180	692.81072	-695.43001	-26.28470	585.79268	-676.98922	-112.08016	313.01276	-748.73296	-151.34145	304.63073	-698.44692	-43.06276	188.78997	-778.83313	10.57107	186.97093	-737.52467	-71.39604	419.64605	-247.88628	-137.39041	529.87721	-211.27827	-151.10534	420.15489	-230.22585	-84.95849	620.16935	-734.45263	-93.54024	504.71880	-769.91988	-37.63322	949.16474	-269.24145	-26.87265	839.01625	-260.11650	-73.71473	812.80528	-219.09894	-143.93180	938.57132	-236.10123	-128.57638	824.14301	-222.94437	-54.53394	988.89288	-645.30243	-20.83289	853.90991	-668.95028	-162.06515	971.96517	-666.13973	-128.58515	835.61949	-689.21199	-6.29006	1090.14529	-318.88539	-178.97700	1178.44131	-369.01597	-23.46802	1128.54453	-557.06005	-189.26436	1196.86583	-479.68328	-89.07659	1613.02239	-385.84187	-39.22869	1579.09226	-246.12812	-43.44699	1623.95965	-523.83508	34.97612	1559.40909	-375.83453	37.65158	1564.18716	-408.93138	-44.84003	1468.99510	-165.40567	-143.59764	1278.36984	-175.05664	-128.83049	1306.02394	-103.30820	-58.72491	1206.84567	-54.15774	-7.74775	1120.04181	-29.84506	-40.34928	1111.06204	-11.25737	-52.32305	1525.95752	-646.14872	-117.01884	1330.28452	-673.27095	-132.25773	1375.01950	-733.00170	-38.64228	1363.34500	-782.97071	82.48513	1324.43028	-813.11805	65.84306	1308.43262	-835.29124	-111.63858	1043.31300	-346.95788	-117.80317	1067.32935	-534.70578	-91.84062	1042.62056	-353.24214	-106.41801	1068.72648	-510.04561	
269	2.68000000	-105.73476	621.77924	-247.22590	-65.39323	510.86127	-243.05663	-127.15360	237.13738	-261.09121	-162.80930	234.24035	-324.79768	-71.10990	122.11407	-216.42647	-19.97520	115.44483	-245.00553	-71.28101	672.64296	-693.69383	-21.94970	566.05990	-676.11615	-108.75746	293.54456	-747.46469	-147.92764	284.38833	-697.19022	-38.88926	170.59917	-779.89003	14.56656	168.05905	-737.92770	-67.65966	398.18330	-248.39108	-133.10688	508.23396	-210.13248	-147.18037	398.63147	-229.75095	-81.42102	600.37487	-732.82036	-90.11648	484.96197	-768.32004	-36.06978	928.30006	-269.28302	-24.67416	818.92480	-259.68868	-70.54674	792.26383	-218.00614	-141.89856	916.91965	-234.37979	-125.57227	803.06722	-221.15778	-54.50685	969.02644	-643.49504	-18.78690	834.58371	-666.97334	-161.77538	950.49253	-664.31458	-126.15406	814.70766	-687.59929	-6.34471	1069.18067	-317.33632	-179.28192	1158.37717	-366.43215	-24.73086	1107.60273	-555.46427	-189.98530	1176.85886	-477.48028	-86.07493	1591.72133	-384.10388	-36.23410	1557.02701	-243.96287	-40.84151	1601.51060	-522.46766	37.40853	1536.42172	-373.87276	40.14829	1541.36958	-407.10732	-43.40822	1445.03411	-164.88333	-145.50173	1256.27571	-179.47786	-129.11125	1281.44800	-107.14475	-58.65360	1180.53089	-62.99711	-7.48748	1092.59532	-42.51361	-39.67546	1082.83385	-24.19204	-50.08172	1500.24625	-641.97146	-117.37442	1304.83817	-663.08221	-131.53308	1347.84024	-724.43661	-38.37093	1331.46324	-773.27556	80.83898	1287.00848	-803.26599	63.62250	1271.36153	-825.18559	-112.26333	1022.91126	-344.86555	-119.29864	1046.87466	-532.58856	-92.51570	1022.06760	-351.29167	-107.62721	1048.16142	-508.07810	
270	2.69000000	-101.65687	599.82076	-246.30241	-61.24703	488.71534	-242.95325	-123.14656	215.22908	-261.01571	-159.46921	211.49683	-324.08856	-66.46340	99.82649	-216.43101	-15.64687	93.40509	-245.52788	-67.12913	651.62884	-691.83496	-17.34420	545.58179	-675.62920	-105.51675	273.35768	-746.60976	-144.78728	263.52632	-696.62596	-34.86085	151.80404	-781.40768	18.33515	148.47137	-738.45407	-63.38827	375.47142	-249.07121	-128.62548	485.92692	-209.47632	-143.32953	376.73175	-229.57542	-78.06434	579.80430	-731.35271	-87.16488	464.53809	-767.11979	-34.89925	906.73833	-268.72249	-22.47936	797.93685	-258.87663	-67.48853	770.69381	-216.89309	-140.22316	894.46741	-232.49177	-122.67268	780.96676	-219.40855	-54.55003	948.19907	-641.49535	-16.68669	814.46116	-665.01504	-161.69519	927.95037	-662.45058	-123.65438	792.80089	-686.07013	-7.06557	1047.58083	-316.21856	-179.83741	1136.98284	-363.42830	-26.17771	1085.44174	-553.80726	-190.96043	1155.63717	-475.18085	-82.84752	1569.47488	-382.33521	-33.05855	1533.96862	-241.84288	-37.94811	1577.92904	-521.22547	40.00278	1512.31399	-371.81354	43.17655	1517.21374	-406.15246	-42.00163	1420.32457	-164.23415	-147.26480	1233.41212	-183.46121	-129.50308	1256.05849	-110.78372	-58.61092	1153.67276	-71.20372	-7.15219	1065.19718	-54.59035	-38.89262	1054.74156	-36.13261	-47.56439	1473.73334	-638.04075	-117.44149	1278.82924	-653.82635	-130.41725	1320.24806	-716.37400	-37.68863	1299.41714	-764.67887	79.05639	1249.24107	-793.88073	61.33207	1233.92603	-815.60879	-113.07912	1001.44036	-342.67670	-121.08534	1025.24858	-530.38033	-93.41519	1000.53862	-349.81379	-108.97645	1026.63821	-506.17594	
271	2.70000000	-97.54430	576.81801	-245.31799	-56.62887	466.52620	-242.34278	-118.41010	192.17893	-260.87326	-154.69513	190.95884	-323.71101	-63.20126	76.49219	-216.90909	-12.53103	68.21320	-246.71937	-62.65754	630.14368	-690.36987	-12.29561	524.15409	-675.58409	-102.67444	252.48228	-746.13471	-142.36206	241.97803	-696.80072	-31.19618	131.99913	-782.53749	21.81969	128.36728	-738.75445	-58.00566	352.52347	-248.57853	-123.98346	463.48731	-208.78695	-138.12665	354.08578	-228.47438	-74.36606	558.66245	-730.30669	-84.46440	443.48291	-766.18953	-34.02618	884.42119	-267.50712	-20.41827	776.00224	-257.75630	-64.62334	747.92255	-215.83244	-138.84968	870.97190	-230.46279	-119.94005	757.61422	-217.80024	-54.84531	926.63118	-639.62249	-14.49392	793.70894	-663.24493	-161.76436	904.42998	-660.66090	-121.05997	770.03116	-684.61305	-8.62015	1024.78108	-315.18976	-180.72774	1114.41321	-360.51015	-27.86215	1062.19047	-551.79054	-192.18701	1133.18904	-472.77074	-79.42922	1546.12153	-380.72965	-29.77410	1509.93980	-239.75526	-34.78476	1553.18599	-519.91514	42.70839	1487.10854	-369.56311	46.63352	1491.66815	-406.02780	-40.63007	1394.89599	-163.72969	-148.96355	1209.89320	-187.25486	-130.00772	1230.09862	-114.07745	-58.59923	1126.51280	-78.76872	-6.73215	1037.88214	-65.86836	-38.12034	1026.83015	-47.05490	-44.62058	1446.32057	-634.28483	-117.66991	1252.26184	-645.73453	-128.90342	1292.31985	-709.15710	-36.86733	1267.04479	-756.97684	77.15204	1211.06634	-784.83386	59.03899	1196.21815	-806.56161	-114.48375	978.73814	-340.51173	-123.16623	1002.54038	-528.18690	-94.86620	978.11441	-348.35325	-110.75418	1004.14612	-503.99882	
